<?xml version="1.0" encoding="utf-8"?>
<!-- Generator: Adobe Illustrator 25.4.1, SVG Export Plug-In . SVG Version: 6.00 Build 0)  -->
<svg version="1.1" id="레이어_1" xmlns="http://www.w3.org/2000/svg" xmlns:xlink="http://www.w3.org/1999/xlink" x="0px"
	 y="0px" viewBox="0 0 190.65 28.25" style="enable-background:new 0 0 190.65 28.25;" xml:space="preserve">
<style type="text/css">
	.st0{fill:url(#SVGID_1_);}
	.st1{fill:#333333;}
</style>
<linearGradient id="SVGID_1_" gradientUnits="userSpaceOnUse" x1="24.5661" y1="34.9613" x2="39.097" y2="-4.962" gradientTransform="matrix(1 0 0 -1 0 29.7669)">
	<stop  offset="0" style="stop-color:#015EEA"/>
	<stop  offset="1" style="stop-color:#00C0FA"/>
</linearGradient>
<path class="st0" d="M62.41,21.86c-0.17-2.32-1.85-4.83-4.86-7.25c0.56-0.76,3.95-5.53,3.3-9.52c-0.24-1.48-1.02-2.68-2.32-3.56
	C52.47-2.58,45.2,2.75,43.81,3.86l-0.12,0.1c-1.78,1.42-5.47,4.35-9.09,9.27c-0.73-0.68-5.2-4.77-10.69-8.1
	C15.98,0.31,9.55-0.75,5.32,2.07C5.26,2.11-0.86,5.64,0.1,16.13c0.37,4.08,2.75,7.52,6.69,9.7c5.56,3.08,13.09,3.09,19.17,0.02
	c0.05-0.02,4.88-2.27,8.98-8.43c1.06,0.8,9.66,7.29,13.59,9.02c2.14,0.94,4.58,1.81,6.92,1.81c1.94,0,3.8-0.6,5.36-2.26
	C61.98,24.76,62.52,23.37,62.41,21.86z M53.45,15.13c0.07,0.04,7.12,4.19,5.98,7.94c-1.26,3.18-5.83,2.24-5.88,2.23
	c-0.03-0.01-2.76-0.61-6.62-2.88c-3.61-2.37-9.5-6.62-10.35-7.23c0.78-1.03,7.43-9.61,13.24-11.64c3.56-1.23,5.64-0.67,6.75,0.01
	c0.99,0.6,1.4,1.41,1.44,1.71c0.2,1.41,0.15,5.18-4.58,9.67l-0.12,0.12L53.45,15.13z M32.94,15.46c-2.95,4.64-8.81,9.98-15.77,9.98
	c-0.04,0-0.09,0-0.13,0c-6.75-0.06-10.08-2.67-10.13-2.7c-1.82-1.03-2.99-3.43-3-3.45c-1.73-3.75-1.05-7.66-1.04-7.69
	C3.7,7.76,5.11,5.32,7.18,4.14c1-0.57,2.17-0.85,3.55-0.85c1.56,0,3.4,0.36,5.57,1.09C22.83,6.54,32,14.62,32.94,15.46z"/>
<g>
	<path class="st1" d="M88.21,10.15h-7.62V1.33H76.9v24.09h15V1.33h-3.69C88.21,1.33,88.21,10.15,88.21,10.15z M80.59,21.94v-8.31
		h7.62v8.31H80.59z"/>
	<polygon class="st1" points="99.64,0.58 95.92,0.58 95.92,26.95 99.64,26.95 99.64,14.56 103.24,14.56 103.24,10.96 99.64,10.96 	
		"/>
	<polygon class="st1" points="129.4,0.58 125.68,0.58 125.68,26.95 129.4,26.95 129.4,14.56 133,14.56 133,10.96 129.4,10.96 	"/>
	<path class="st1" d="M120.78,21.64c-1.18,0.22-2.39,0.32-3.58,0.32h-6.77v-17h11.76V1.51h-15.54v23.91h10.4
		c1.28,0,2.56-0.11,3.83-0.34c1.28-0.23,2.33-0.54,3.12-0.93l0.21-0.1v-3.53l-0.54,0.26C122.92,21.14,121.95,21.43,120.78,21.64z"/>
	<path class="st1" d="M149.97,4.34c-1.43-2.1-3.39-3.16-5.83-3.16c-2.46,0-4.43,1.06-5.86,3.16c-1.4,2.05-2.1,5.12-2.1,9.12
		s0.71,7.07,2.1,9.12c1.43,2.1,3.4,3.16,5.86,3.16c2.44,0,4.4-1.06,5.83-3.16c1.4-2.05,2.1-5.12,2.1-9.12
		C152.08,9.46,151.37,6.39,149.97,4.34z M144.14,22.27c-1.29,0-2.29-0.67-3.06-2.06c-0.8-1.44-1.21-3.71-1.21-6.75
		c0-3.02,0.41-5.29,1.21-6.73c0.78-1.39,1.78-2.07,3.06-2.07c1.26,0,2.25,0.68,3.02,2.07c0.8,1.45,1.2,3.71,1.2,6.73
		c0,3.04-0.4,5.31-1.2,6.75C146.39,21.59,145.41,22.27,144.14,22.27z"/>
	<polygon class="st1" points="156.4,7 152.05,7 152.31,10.54 156.4,10.54 156.4,16.27 152.31,16.27 152.05,19.81 156.4,19.81 
		156.4,26.95 160.09,26.95 160.09,0.58 156.4,0.58 	"/>
	<path class="st1" d="M187.27,18.07c-2.12-0.74-4.95-1.12-8.42-1.12s-6.3,0.38-8.42,1.12c-2.25,0.78-3.39,2.09-3.39,3.88
		c0,1.77,1.14,3.07,3.38,3.86c2.12,0.75,4.95,1.13,8.42,1.13s6.3-0.38,8.42-1.13c2.25-0.79,3.39-2.09,3.39-3.86
		C190.66,20.16,189.52,18.86,187.27,18.07z M178.85,23.89c-2.38,0-4.36-0.19-5.88-0.57c-0.94-0.23-2.06-0.66-2.06-1.36
		s1.12-1.13,2.06-1.36c1.52-0.38,3.5-0.57,5.88-0.57s4.36,0.19,5.88,0.57c0.94,0.23,2.06,0.66,2.06,1.36s-1.12,1.13-2.06,1.36
		C183.21,23.69,181.23,23.89,178.85,23.89z"/>
	<polygon class="st1" points="183.52,10 186.85,10 186.85,17.2 190.36,17.2 190.36,0.58 186.85,0.58 186.85,6.58 183.52,6.58 
		183.52,0.73 180.01,0.73 180.01,16.3 183.52,16.3 	"/>
	<polygon class="st1" points="178.9,2.83 173.68,2.83 173.68,0.22 169.96,0.22 169.96,2.83 164.53,2.83 164.53,5.86 178.9,5.86 	"/>
	<path class="st1" d="M171.86,16.66c1.81,0,3.34-0.45,4.54-1.35c1.23-0.92,1.86-2.17,1.86-3.71s-0.63-2.78-1.86-3.71
		c-1.2-0.9-2.73-1.35-4.54-1.35s-3.34,0.45-4.54,1.35c-1.23,0.92-1.86,2.17-1.86,3.71s0.63,2.78,1.86,3.71
		C168.52,16.2,170.05,16.66,171.86,16.66z M169.66,10.1c0.55-0.43,1.29-0.64,2.2-0.64s1.65,0.22,2.2,0.64
		c0.53,0.41,0.78,0.9,0.78,1.5s-0.26,1.09-0.78,1.5c-0.55,0.43-1.29,0.64-2.2,0.64s-1.65-0.22-2.2-0.64
		c-0.53-0.41-0.78-0.9-0.78-1.5S169.13,10.51,169.66,10.1z"/>
</g>
</svg>
